# xmcd
#
# Track frame offsets: 
#        150
#        20078
#        31566
#        50646
#        65859
#        83076
#        101407
#        119479
#        142702
#        169623
#
# Disc length: 2525 seconds
#
# Revision: 0
# Processed by: cddbd v1.5.2PL0 Copyright (c) Steve Scherf et al.
# Submitted via: ExactAudioCopy v0.99pb3
#
DISCID=7d09db0a
DTITLE=Samettivallankumous - T‰‰ll‰ mies, kuuleeko nainen?
DYEAR=2007
DGENRE=Country
TTITLE0=Ameriikka
TTITLE1=Ajelehtija
TTITLE2=En voi s‰rke‰ sun syd‰nt‰ viel‰
TTITLE3=Teit oven
TTITLE4=Kuin aaveet
TTITLE5=Painajaista
TTITLE6=Siit‰ vaan
TTITLE7=J‰‰kellot
TTITLE8=P‰‰skynen
TTITLE9=Hullu
EXTD=
EXTT0=
EXTT1=
EXTT2=
EXTT3=
EXTT4=
EXTT5=
EXTT6=
EXTT7=
EXTT8=
EXTT9=
PLAYORDER=
